<?xml version="1.0" standalone="no"?>
<svg viewBox="0 0 200 200" xmlns="http://www.w3.org/2000/svg">
  <path fill="#007BFF" d="M25.3,-51.5C30.4,-40.8,30.7,-29.3,39.2,-20.6C47.8,-11.9,64.7,-5.9,73.7,5.2C82.6,16.3,83.6,32.5,74.5,40.4C65.5,48.4,46.5,47.9,32.4,54.1C18.3,60.3,9.1,73.2,-0.7,74.5C-10.6,75.7,-21.2,65.4,-30.6,56.5C-40.1,47.6,-48.3,40.1,-57.1,30.9C-66,21.7,-75.4,10.9,-77.9,-1.5C-80.5,-13.8,-76,-27.6,-68.5,-39.1C-61,-50.5,-50.4,-59.7,-38.5,-66.5C-26.5,-73.2,-13.3,-77.4,-1.6,-74.7C10.1,-71.9,20.1,-62.1,25.3,-51.5Z" transform="translate(100 100)" />
</svg>
