<?xml version="1.0" encoding="UTF-8"?>
<svg xmlns="http://www.w3.org/2000/svg" xmlns:xlink="http://www.w3.org/1999/xlink" width="399pt" height="246pt" viewBox="0 0 399 246" version="1.1">
<defs>
<filter id="alpha" filterUnits="objectBoundingBox" x="0%" y="0%" width="100%" height="100%">
  <feColorMatrix type="matrix" in="SourceGraphic" values="0 0 0 0 1 0 0 0 0 1 0 0 0 0 1 0 0 0 1 0"/>
</filter>
<mask id="mask0">
  <g filter="url(#alpha)">
<rect x="0" y="0" width="399" height="246" style="fill:rgb(0%,0%,0%);fill-opacity:0.2;stroke:none;"/>
  </g>
</mask>
<clipPath id="clip1">
  <rect x="0" y="0" width="399" height="246"/>
</clipPath>
<g id="surface5" clip-path="url(#clip1)">
<path style=" stroke:none;fill-rule:nonzero;fill:rgb(0%,0%,0%);fill-opacity:1;" d="M 338.167969 90.523438 L 319.277344 94.367188 C 319.203125 91.25 319.164062 89.246094 319.164062 89.246094 C 319.164062 89.246094 319.378906 88.53125 319.753906 87.289062 Z M 338.167969 90.523438 "/>
</g>
</defs>
<g id="surface1">
<path style=" stroke:none;fill-rule:nonzero;fill:rgb(94.509804%,94.509804%,94.509804%);fill-opacity:1;" d="M 19.546875 226.789062 C 19.710938 233.03125 20.757812 239.21875 22.644531 245.167969 C 22.6875 245.304688 22.734375 245.441406 22.78125 245.582031 L 34.351562 245.582031 C 34.339844 245.457031 34.328125 245.316406 34.316406 245.167969 C 33.542969 236.28125 37.953125 182.847656 43.273438 173.601562 C 42.804688 174.351562 18.648438 198.554688 19.546875 226.789062 Z M 19.546875 226.789062 "/>
<path style=" stroke:none;fill-rule:nonzero;fill:rgb(94.509804%,94.509804%,94.509804%);fill-opacity:1;" d="M 20.414062 245.167969 C 20.511719 245.304688 20.609375 245.445312 20.714844 245.582031 L 29.394531 245.582031 C 29.332031 245.460938 29.253906 245.324219 29.164062 245.167969 C 27.730469 242.574219 23.488281 234.824219 19.546875 226.789062 C 15.3125 218.152344 11.425781 209.1875 11.753906 205.945312 C 11.652344 206.675781 8.722656 228.980469 20.414062 245.167969 Z M 20.414062 245.167969 "/>
<path style=" stroke:none;fill-rule:nonzero;fill:rgb(62.352941%,38.039216%,41.568627%);fill-opacity:1;" d="M 272.96875 50.617188 C 273.636719 52.277344 275.007812 53.558594 276.710938 54.109375 C 278.414062 54.660156 280.273438 54.429688 281.785156 53.476562 L 298.542969 66.9375 L 299.578125 55.804688 L 283.507812 44.726562 C 281.703125 42.230469 278.316406 41.480469 275.625 42.984375 C 272.9375 44.484375 271.796875 47.765625 272.96875 50.617188 Z M 272.96875 50.617188 "/>
<path style=" stroke:none;fill-rule:nonzero;fill:rgb(20.392157%,22.745098%,25.098039%);fill-opacity:1;" d="M 298.917969 54.761719 L 292.664062 50.335938 L 285.570312 58.542969 L 293.820312 63.441406 Z M 298.917969 54.761719 "/>
<path style=" stroke:none;fill-rule:nonzero;fill:rgb(24.705882%,23.921569%,33.72549%);fill-opacity:1;" d="M 297.546875 51.757812 L 318.625 59.882812 L 338.914062 46.574219 C 343.25 43.730469 349.019531 44.550781 352.398438 48.492188 C 355.773438 52.433594 355.707031 58.269531 352.238281 62.132812 L 352.058594 62.335938 L 320.851562 79.09375 L 286.765625 63.496094 Z M 297.546875 51.757812 "/>
<path style=" stroke:none;fill-rule:nonzero;fill:rgb(89.803922%,89.803922%,89.803922%);fill-opacity:1;" d="M 291.605469 244.742188 L 71.988281 244.742188 L 79.949219 88.996094 L 114.320312 88.996094 L 146.007812 111.246094 L 299.570312 111.246094 Z M 291.605469 244.742188 "/>
<path style=" stroke:none;fill-rule:nonzero;fill:rgb(100%,100%,100%);fill-opacity:1;" d="M 237.84375 197.246094 L 110.910156 144.886719 C 109.984375 144.503906 109.542969 143.445312 109.921875 142.519531 L 167.441406 2.628906 C 167.824219 1.703125 168.878906 1.261719 169.804688 1.640625 L 296.742188 54.003906 C 297.664062 54.386719 298.105469 55.445312 297.726562 56.371094 L 240.207031 196.257812 C 239.828125 197.183594 238.769531 197.625 237.84375 197.246094 Z M 237.84375 197.246094 "/>
<path style=" stroke:none;fill-rule:nonzero;fill:rgb(24.705882%,23.921569%,33.72549%);fill-opacity:1;" d="M 237.84375 197.246094 L 110.910156 144.886719 C 109.984375 144.503906 109.542969 143.445312 109.921875 142.519531 L 167.441406 2.628906 C 167.824219 1.703125 168.878906 1.261719 169.804688 1.640625 L 296.742188 54.003906 C 297.664062 54.386719 298.105469 55.445312 297.726562 56.371094 L 240.207031 196.257812 C 239.828125 197.183594 238.769531 197.625 237.84375 197.246094 Z M 169.527344 2.3125 C 168.972656 2.085938 168.339844 2.351562 168.109375 2.90625 L 110.59375 142.792969 C 110.367188 143.351562 110.628906 143.984375 111.183594 144.214844 L 238.121094 196.574219 C 238.675781 196.804688 239.308594 196.539062 239.539062 195.984375 L 297.054688 56.09375 C 297.285156 55.539062 297.019531 54.902344 296.464844 54.671875 Z M 169.527344 2.3125 "/>
<path style=" stroke:none;fill-rule:nonzero;fill:rgb(94.901961%,94.901961%,94.901961%);fill-opacity:1;" d="M 205.378906 70.890625 L 173.898438 57.902344 C 172.972656 57.519531 172.535156 56.460938 172.914062 55.535156 L 185.878906 24 C 186.261719 23.074219 187.316406 22.632812 188.242188 23.015625 L 219.726562 36 C 220.648438 36.382812 221.089844 37.441406 220.710938 38.367188 L 207.746094 69.902344 C 207.363281 70.828125 206.304688 71.269531 205.378906 70.890625 Z M 187.96875 23.683594 C 187.410156 23.457031 186.777344 23.722656 186.546875 24.277344 L 173.582031 55.8125 C 173.355469 56.367188 173.621094 57.003906 174.171875 57.230469 L 205.65625 70.21875 C 206.210938 70.445312 206.847656 70.183594 207.074219 69.625 L 220.039062 38.09375 C 220.269531 37.535156 220.003906 36.902344 219.449219 36.671875 Z M 187.96875 23.683594 "/>
<path style=" stroke:none;fill-rule:nonzero;fill:rgb(20.392157%,22.745098%,25.098039%);fill-opacity:1;" d="M 194.75 71.015625 L 163.269531 58.03125 C 162.4375 57.6875 162.039062 56.734375 162.382812 55.898438 L 175.347656 24.367188 C 175.691406 23.53125 176.644531 23.136719 177.476562 23.476562 L 208.957031 36.464844 C 209.789062 36.808594 210.1875 37.761719 209.84375 38.59375 L 196.878906 70.128906 C 196.535156 70.960938 195.582031 71.359375 194.75 71.015625 Z M 194.75 71.015625 "/>
<path style=" stroke:none;fill-rule:nonzero;fill:rgb(80%,80%,80%);fill-opacity:1;" d="M 255.390625 114.078125 L 156.925781 73.460938 C 156.089844 73.117188 155.695312 72.164062 156.039062 71.332031 C 156.378906 70.496094 157.332031 70.097656 158.164062 70.441406 L 256.632812 111.058594 C 257.464844 111.402344 257.863281 112.359375 257.519531 113.191406 C 257.175781 114.023438 256.222656 114.421875 255.390625 114.078125 Z M 255.390625 114.078125 "/>
<path style=" stroke:none;fill-rule:nonzero;fill:rgb(80%,80%,80%);fill-opacity:1;" d="M 227.335938 114.667969 L 152.648438 83.863281 C 151.816406 83.519531 151.417969 82.5625 151.761719 81.730469 C 152.105469 80.894531 153.058594 80.5 153.890625 80.84375 L 228.578125 111.652344 C 229.410156 111.992188 229.808594 112.949219 229.464844 113.78125 C 229.121094 114.617188 228.167969 115.011719 227.335938 114.667969 Z M 227.335938 114.667969 "/>
<path style=" stroke:none;fill-rule:nonzero;fill:rgb(80%,80%,80%);fill-opacity:1;" d="M 270.78125 75.699219 L 227.242188 57.738281 C 226.410156 57.394531 226.011719 56.441406 226.355469 55.605469 C 226.695312 54.773438 227.648438 54.375 228.480469 54.71875 L 272.023438 72.679688 C 272.855469 73.023438 273.25 73.976562 272.910156 74.808594 C 272.566406 75.644531 271.613281 76.042969 270.78125 75.699219 Z M 270.78125 75.699219 "/>
<path style=" stroke:none;fill-rule:nonzero;fill:rgb(80%,80%,80%);fill-opacity:1;" d="M 255.640625 81.617188 L 222.964844 68.136719 C 222.132812 67.792969 221.734375 66.839844 222.078125 66.007812 C 222.421875 65.171875 223.375 64.773438 224.207031 65.117188 L 256.878906 78.597656 C 257.710938 78.9375 258.109375 79.894531 257.765625 80.726562 C 257.421875 81.5625 256.472656 81.957031 255.640625 81.617188 Z M 255.640625 81.617188 "/>
<path style=" stroke:none;fill-rule:nonzero;fill:rgb(80%,80%,80%);fill-opacity:1;" d="M 246.839844 134.878906 L 148.371094 94.261719 C 147.539062 93.917969 147.144531 92.964844 147.484375 92.128906 C 147.828125 91.296875 148.78125 90.898438 149.613281 91.242188 L 248.082031 131.859375 C 248.914062 132.203125 249.308594 133.15625 248.96875 133.988281 C 248.625 134.824219 247.671875 135.222656 246.839844 134.878906 Z M 246.839844 134.878906 "/>
<path style=" stroke:none;fill-rule:nonzero;fill:rgb(80%,80%,80%);fill-opacity:1;" d="M 218.785156 135.46875 L 144.097656 104.660156 C 143.265625 104.316406 142.867188 103.363281 143.210938 102.527344 C 143.550781 101.695312 144.503906 101.296875 145.335938 101.640625 L 220.027344 132.449219 C 220.859375 132.792969 221.253906 133.746094 220.914062 134.582031 C 220.570312 135.414062 219.617188 135.8125 218.785156 135.46875 Z M 218.785156 135.46875 "/>
<path style=" stroke:none;fill-rule:nonzero;fill:rgb(80%,80%,80%);fill-opacity:1;" d="M 238.289062 155.675781 L 139.820312 115.058594 C 138.988281 114.714844 138.589844 113.761719 138.933594 112.929688 C 139.277344 112.09375 140.230469 111.695312 141.0625 112.039062 L 239.53125 152.65625 C 240.363281 153 240.757812 153.957031 240.414062 154.789062 C 240.074219 155.621094 239.121094 156.019531 238.289062 155.675781 Z M 238.289062 155.675781 "/>
<path style=" stroke:none;fill-rule:nonzero;fill:rgb(80%,80%,80%);fill-opacity:1;" d="M 234.011719 166.078125 L 135.542969 125.460938 C 134.710938 125.117188 134.316406 124.160156 134.660156 123.328125 C 135 122.492188 135.953125 122.097656 136.785156 122.441406 L 235.253906 163.058594 C 236.085938 163.402344 236.484375 164.355469 236.140625 165.1875 C 235.796875 166.023438 234.84375 166.417969 234.011719 166.078125 Z M 234.011719 166.078125 "/>
<path style=" stroke:none;fill-rule:nonzero;fill:rgb(20.392157%,22.745098%,25.098039%);fill-opacity:1;" d="M 185.976562 165.304688 C 187.945312 165.40625 189.921875 165.347656 191.882812 165.125 C 193.648438 164.917969 195.488281 164.632812 197.035156 163.703125 C 198.390625 162.925781 199.296875 161.546875 199.472656 159.992188 C 199.613281 158.496094 198.769531 157.082031 197.390625 156.492188 C 195.996094 155.90625 194.394531 156.132812 193.21875 157.078125 C 191.96875 158.167969 191.28125 159.765625 191.355469 161.425781 C 191.433594 164.785156 194.089844 168.101562 197.035156 169.5 C 200.355469 171.074219 204.890625 169.738281 205.738281 165.859375 C 205.917969 165.054688 204.820312 164.773438 204.363281 165.292969 C 203.0625 166.726562 203.105469 168.925781 204.457031 170.3125 C 205.808594 171.695312 208.003906 171.785156 209.464844 170.519531 L 208.230469 170.007812 C 208.960938 173.070312 211.265625 175.511719 214.28125 176.410156 C 215.011719 176.628906 215.769531 176.746094 216.53125 176.753906 C 217.457031 176.757812 218.410156 177.222656 219.296875 177.511719 L 225.6875 179.597656 C 226.625 179.902344 227.222656 178.472656 226.277344 178.164062 L 220.488281 176.277344 C 219.523438 175.960938 218.5625 175.640625 217.597656 175.332031 C 216.90625 175.113281 216.148438 175.230469 215.425781 175.101562 C 212.671875 174.582031 210.464844 172.511719 209.761719 169.796875 C 209.71875 169.527344 209.539062 169.296875 209.285156 169.195312 C 209.035156 169.089844 208.746094 169.125 208.527344 169.285156 C 207.683594 170.089844 206.355469 170.0625 205.546875 169.226562 C 204.738281 168.390625 204.757812 167.058594 205.582031 166.242188 L 204.207031 165.671875 C 203.65625 168.171875 200.609375 169.113281 198.414062 168.390625 C 195.960938 167.578125 193.851562 165.226562 193.117188 162.761719 C 192.722656 161.5625 192.84375 160.253906 193.449219 159.148438 C 193.996094 158.128906 195.136719 157.570312 196.277344 157.761719 C 197.3125 157.910156 198.042969 158.851562 197.933594 159.890625 C 197.765625 161.035156 197.042969 162.019531 196.003906 162.519531 C 194.621094 163.261719 192.96875 163.449219 191.433594 163.617188 C 189.683594 163.808594 187.921875 163.859375 186.164062 163.765625 C 185.175781 163.71875 184.976562 165.253906 185.976562 165.304688 Z M 185.976562 165.304688 "/>
<path style=" stroke:none;fill-rule:nonzero;fill:rgb(100%,100%,100%);fill-opacity:1;" d="M 291.605469 121.742188 L 291.605469 244.742188 L 71.988281 244.742188 L 71.988281 99.492188 L 106.355469 99.492188 L 138.042969 121.742188 Z M 291.605469 121.742188 "/>
<path style=" stroke:none;fill-rule:nonzero;fill:rgb(20.392157%,22.745098%,25.098039%);fill-opacity:1;" d="M 85.398438 221.652344 L 175.089844 221.652344 L 175.089844 228.789062 L 85.398438 228.789062 Z M 85.398438 221.652344 "/>
<path style=" stroke:none;fill-rule:nonzero;fill:rgb(20.392157%,22.745098%,25.098039%);fill-opacity:1;" d="M 85.398438 207.796875 L 130.246094 207.796875 L 130.246094 214.933594 L 85.398438 214.933594 Z M 85.398438 207.796875 "/>
<path style=" stroke:none;fill-rule:nonzero;fill:rgb(24.705882%,23.921569%,33.72549%);fill-opacity:1;" d="M 292.023438 245.160156 L 71.570312 245.160156 L 71.570312 99.070312 L 106.488281 99.070312 L 138.179688 121.320312 L 292.023438 121.320312 Z M 72.40625 244.320312 L 291.1875 244.320312 L 291.1875 122.160156 L 137.914062 122.160156 L 106.222656 99.910156 L 72.40625 99.910156 Z M 72.40625 244.320312 "/>
<path style=" stroke:none;fill-rule:nonzero;fill:rgb(62.352941%,38.039216%,41.568627%);fill-opacity:1;" d="M 381.039062 230.316406 L 373.605469 232.972656 L 359.828125 205.53125 L 370.796875 201.605469 Z M 381.039062 230.316406 "/>
<path style=" stroke:none;fill-rule:nonzero;fill:rgb(18.431373%,18.039216%,25.490196%);fill-opacity:1;" d="M 361.546875 245.429688 L 361.4375 245.125 C 359.605469 239.964844 362.285156 234.292969 367.433594 232.445312 L 382.066406 227.207031 L 385.507812 236.851562 Z M 361.546875 245.429688 "/>
<path style=" stroke:none;fill-rule:nonzero;fill:rgb(62.352941%,38.039216%,41.568627%);fill-opacity:1;" d="M 332.714844 237.675781 L 324.824219 237.675781 L 321.070312 207.1875 L 332.71875 207.1875 Z M 332.714844 237.675781 "/>
<path style=" stroke:none;fill-rule:nonzero;fill:rgb(18.431373%,18.039216%,25.490196%);fill-opacity:1;" d="M 334.726562 245.339844 L 309.28125 245.335938 L 309.28125 245.015625 C 309.28125 239.535156 313.71875 235.09375 319.1875 235.09375 L 334.730469 235.097656 Z M 334.726562 245.339844 "/>
<path style=" stroke:none;fill-rule:nonzero;fill:rgb(20.392157%,22.745098%,25.098039%);fill-opacity:1;" d="M 350.699219 42.898438 L 347.269531 36.105469 C 347.269531 36.105469 334.484375 39.3125 333.320312 46.734375 Z M 350.699219 42.898438 "/>
<path style=" stroke:none;fill-rule:nonzero;fill:rgb(18.431373%,18.039216%,25.490196%);fill-opacity:1;" d="M 364.863281 120.5625 L 355.527344 172.730469 L 380.308594 216.628906 L 365.503906 222.433594 L 340.402344 179.878906 L 337.183594 168.273438 L 335.25 228.878906 L 321.898438 228.472656 L 315.777344 171.882812 L 325.597656 119.273438 Z M 364.863281 120.5625 "/>
<path style=" stroke:none;fill-rule:nonzero;fill:rgb(24.705882%,23.921569%,33.72549%);fill-opacity:1;" d="M 362.929688 96.996094 L 362.605469 66.40625 C 362.605469 53.441406 354.089844 43.882812 352.90625 43 C 352.351562 41.222656 351.355469 39.996094 349.945312 39.355469 C 347.105469 38.066406 343.632812 39.613281 343.484375 39.679688 L 333.066406 43.59375 L 333.019531 43.738281 C 332.90625 44.0625 322.394531 78.617188 319.753906 87.289062 C 319.378906 88.53125 319.164062 89.246094 319.164062 89.246094 C 319.164062 89.246094 319.203125 91.25 319.277344 94.367188 C 319.511719 105.089844 320.0625 128.972656 320.28125 129.976562 C 320.28125 129.976562 339.527344 132.898438 347.144531 132.898438 C 360.855469 132.898438 369.5625 130.273438 369.757812 130.226562 L 370.070312 130.160156 Z M 362.929688 96.996094 "/>
<path style=" stroke:none;fill-rule:nonzero;fill:rgb(62.352941%,38.039216%,41.568627%);fill-opacity:1;" d="M 348.96875 13.089844 C 352.699219 19.925781 350.191406 28.5 343.363281 32.238281 C 336.539062 35.976562 327.980469 33.460938 324.25 26.625 C 320.519531 19.789062 323.027344 11.214844 329.851562 7.476562 C 336.679688 3.742188 345.238281 6.253906 348.96875 13.089844 Z M 348.96875 13.089844 "/>
<use xlink:href="#surface5" mask="url(#mask0)"/>
<path style=" stroke:none;fill-rule:nonzero;fill:rgb(62.352941%,38.039216%,41.568627%);fill-opacity:1;" d="M 282.222656 86.488281 C 283.578125 87.65625 285.382812 88.160156 287.148438 87.863281 C 288.914062 87.570312 290.457031 86.507812 291.363281 84.964844 L 312.425781 89.203125 L 308.234375 78.839844 L 288.878906 76.402344 C 286.125 75.019531 282.777344 75.914062 281.078125 78.484375 C 279.378906 81.058594 279.871094 84.496094 282.222656 86.488281 Z M 282.222656 86.488281 "/>
<path style=" stroke:none;fill-rule:nonzero;fill:rgb(20.392157%,22.745098%,25.098039%);fill-opacity:1;" d="M 307.164062 78.214844 L 299.582031 77.167969 L 297.050781 87.722656 L 306.625 88.273438 Z M 307.164062 78.214844 "/>
<path style=" stroke:none;fill-rule:nonzero;fill:rgb(24.705882%,23.921569%,33.72549%);fill-opacity:1;" d="M 304.570312 76.183594 L 327.015625 73.6875 L 338.925781 52.527344 C 341.46875 48.003906 346.972656 46.074219 351.777344 48.019531 C 356.585938 49.964844 359.207031 55.179688 357.898438 60.203125 L 357.832031 60.46875 L 337.816406 89.71875 L 300.386719 91.570312 Z M 304.570312 76.183594 "/>
<path style=" stroke:none;fill-rule:nonzero;fill:rgb(18.431373%,18.039216%,25.490196%);fill-opacity:1;" d="M 348.605469 32.105469 L 336.914062 32.527344 C 336.203125 32.554688 334.269531 24.847656 334.015625 23.25 C 333.601562 21.097656 331.65625 19.589844 329.472656 19.722656 C 328.597656 19.804688 326.390625 18.167969 324.113281 16.230469 C 319.789062 12.546875 320.015625 5.632812 324.765625 2.523438 C 324.894531 2.4375 325.023438 2.359375 325.148438 2.289062 C 328.144531 0.609375 331.648438 0.046875 335.082031 0.00390625 C 338.191406 -0.0351562 341.394531 0.355469 344.136719 1.832031 C 349.050781 4.476562 351.667969 10.257812 351.898438 15.839844 C 352.125 21.425781 350.339844 26.886719 348.3125 32.09375 "/>
<path style=" stroke:none;fill-rule:nonzero;fill:rgb(79.607843%,79.607843%,79.607843%);fill-opacity:1;" d="M 398.582031 246 L 0.417969 246 C 0.1875 246 0 245.8125 0 245.582031 C 0 245.347656 0.1875 245.160156 0.417969 245.160156 L 398.582031 245.160156 C 398.8125 245.160156 399 245.347656 399 245.582031 C 399 245.8125 398.8125 246 398.582031 246 Z M 398.582031 246 "/>
</g>
</svg>
